<?xml version="1.0" encoding="utf-8"?>
<!-- Generator: Adobe Illustrator 27.3.1, SVG Export Plug-In . SVG Version: 6.00 Build 0)  -->
<svg version="1.1" id="Layer_1" xmlns="http://www.w3.org/2000/svg" xmlns:xlink="http://www.w3.org/1999/xlink" x="0px" y="0px"
	 viewBox="0 0 3000 3000" style="enable-background:new 0 0 3000 3000;" xml:space="preserve">
<style type="text/css">
	.st0{fill:#FEC44C;}
</style>
<path class="st0" d="M1367.6,148H694.1C481.4,148,309,320.4,309,533V2466c0,212.7,172.4,385.1,385.1,385.1h673.5
	c859.4,0,1355.4-542.9,1355.4-1347.6v-3.9C2723,690.9,2226.9,148,1367.6,148L1367.6,148z M2630.7,1533.5h-29.6v332.8
	c16.6,1.7,29.6,15.7,29.6,32.8c0,8.8-3.4,17.1-9.6,23.3s-14.5,9.6-23.3,9.6s-17.1-3.4-23.3-9.6s-9.6-14.5-9.6-23.3
	s3.4-17.1,9.6-23.3c5.4-5.4,12.4-8.7,20-9.5v-293.5c-32.2,175.7-179.5,311.6-360.6,326.4v32.7h-65.8v-65.8h65.8v26.5
	c190.8-15.9,343.3-168.4,359.2-359.2h-28.2v-25.8c-33.9,20.8-134.9,81.8-191.2,102.8l0,0c0,0,0,0,0,0
	c-30.4-36.8-76.8-46.4-103.3-48.8c-0.7,5.2-5.1,9.3-10.5,9.3h-19.7c-5.8,0-10.6-4.8-10.6-10.6v-8.7h-10.7c-4.9,0-8.8-4-8.8-8.8v-3.7
	h-61.9c-13.9,460.7-297,768.9-780.7,768.9h-320.9c-88.1,0-159.6-71.4-159.6-159.6v-1298c0-88.1,71.4-159.6,159.6-159.6h320.9
	c483.2,0,766.2,307.6,780.6,771.1h61.9v-3.7c0-4.9,4-8.8,8.8-8.8h10.7v-8.7c0-5.8,4.8-10.6,10.6-10.6h19.7c5.4,0,9.8,4.1,10.5,9.3
	c26.4-2.4,72.9-12,103.3-48.9c56.3,21.1,157.4,82,191.2,102.8v-25.8h28.3c-15.9-190.8-168.4-343.3-359.2-359.2v28.3h-65.9v-65.8
	h65.9v31c181.1,14.8,328.4,150.8,360.6,326.4v-291.8c-16.6-1.7-29.6-15.7-29.6-32.8c0-9.1,3.7-17.3,9.6-23.3
	c6.8-6.8,16.4-10.6,27-9.4c14.8,1.6,26.9,13.4,28.9,28.1c2.6,19.1-11.2,35.6-29.3,37.4v331.1h29.6L2630.7,1533.5L2630.7,1533.5z"/>
<path class="st0" d="M2564.9,1495.5v10.1h-161.3c-2.2,7.5-9.1,13-17.2,13c-4.4,0-8.5-1.7-11.6-4.4c-1.9-1.7-3.5-3.7-4.6-6
	s-1.7-4.9-1.7-7.6c0-9.9,8-18,18-18c8.2,0,15.1,5.4,17.2,12.9L2564.9,1495.5L2564.9,1495.5z"/>
</svg>
