<?xml version="1.0" encoding="UTF-8"?>
<svg id="Layer_1" data-name="Layer 1" xmlns="http://www.w3.org/2000/svg" xmlns:xlink="http://www.w3.org/1999/xlink" viewBox="0 0 3000 3000">
  <defs>
    <style>
      .cls-1 {
        filter: url(#outer-glow-1);
      }

      .cls-2 {
        fill: #fec44c;
      }

      .cls-3 {
        filter: url(#outer-glow-2);
      }
    </style>
    <filter id="outer-glow-1" filterUnits="userSpaceOnUse">
      <feOffset dx="0" dy="0"/>
      <feGaussianBlur result="blur" stdDeviation="2"/>
      <feFlood flood-color="#fdc159" flood-opacity="1"/>
      <feComposite in2="blur" operator="in"/>
      <feComposite in="SourceGraphic"/>
    </filter>
    <filter id="outer-glow-2" filterUnits="userSpaceOnUse">
      <feOffset dx="0" dy="0"/>
      <feGaussianBlur result="blur-2" stdDeviation="2"/>
      <feFlood flood-color="#fdc159" flood-opacity="1"/>
      <feComposite in2="blur-2" operator="in"/>
      <feComposite in="SourceGraphic"/>
    </filter>
  </defs>
  <g class="cls-1">
    <path class="cls-2" d="m1457.48,486.37h-451.56c-142.58,0-258.17,115.59-258.17,258.17v1295.96c0,142.58,115.59,258.17,258.17,258.17h451.56c576.17,0,908.77-364.03,908.77-903.53v-2.62c0-542.12-332.6-906.15-908.77-906.15Zm846.89,928.95h-19.87v223.13c11.14,1.11,19.87,10.53,19.87,21.96,0,5.9-2.29,11.44-6.46,15.61-4.17,4.17-9.71,6.46-15.61,6.46s-11.44-2.29-15.61-6.46c-4.17-4.17-6.46-9.71-6.46-15.61s2.3-11.44,6.46-15.61c3.65-3.64,8.35-5.86,13.42-6.35v-196.77c-21.58,117.79-120.34,208.92-241.75,218.86v21.94h-44.14v-44.14h44.14v17.79c127.9-10.65,230.17-112.91,240.81-240.81h-18.94v-17.33c-22.7,13.98-90.45,54.83-128.21,68.96h0s0-.01-.01-.01c-20.39-24.69-51.51-31.12-69.23-32.71-.45,3.49-3.42,6.23-7.03,6.23h-13.2c-3.91,0-7.11-3.2-7.11-7.11v-5.85h-7.17c-3.26,0-5.92-2.66-5.92-5.92v-2.48h-41.47c-9.3,308.89-199.11,515.54-523.4,515.54h-215.14c-59.09,0-106.99-47.9-106.99-106.99v-870.26c0-59.09,47.9-106.99,106.99-106.99h215.14c323.95,0,513.71,206.22,523.37,517h41.5v-2.49c0-3.26,2.66-5.92,5.92-5.92h7.17v-5.85c0-3.91,3.2-7.11,7.11-7.11h13.2c3.62,0,6.6,2.75,7.03,6.27,17.73-1.6,48.85-8.05,69.24-32.76,37.77,14.13,105.51,54.98,128.21,68.96v-17.33h18.95c-10.65-127.89-112.92-230.16-240.81-240.81v18.95h-44.15v-44.15h44.15v20.79c121.4,9.94,220.17,101.08,241.74,218.86v-195.61c-11.15-1.11-19.88-10.54-19.88-21.97,0-6.08,2.48-11.6,6.47-15.6,4.54-4.53,11.03-7.11,18.09-6.33,9.89,1.09,18.03,8.99,19.37,18.85,1.75,12.77-7.53,23.84-19.66,25.05v221.97h19.87v44.15Z"/>
    <path class="cls-2" d="m2219.23,1400.85v6.78h-108.15c-1.47,5.02-6.09,8.69-11.56,8.69-2.98,0-5.68-1.13-7.78-2.92-1.3-1.11-2.36-2.48-3.1-4.03-.74-1.55-1.16-3.29-1.16-5.12,0-6.67,5.38-12.05,12.04-12.05,5.47,0,10.09,3.64,11.56,8.65h108.15Z"/>
  </g>
  <g class="cls-3">
    <path class="cls-2" d="m740.79,2488.4v-5.33c11.92.66,24.9.99,38.93.99l40.28-.54c13.67,0,24.58,1.97,32.74,5.92,8.16,3.94,14.5,10.22,19.01,18.83,4.52,8.61,6.77,18.64,6.77,30.08,0,21.07-7.17,38.47-21.5,52.2-14.33,13.73-33.57,20.59-57.71,20.59-1.39,0-6.9-.17-16.53-.5-9.63-.33-15.29-.5-16.98-.5-5.84,0-14.18.36-25.02,1.08v-5.33c9.81-1.87,15.28-2.98,16.39-3.34,1.11-.36,1.91-.78,2.39-1.26s.81-1.14.99-1.99c.3-1.26.51-6.38.63-15.35.36-19.57.54-33.81.54-42.72l-.54-39.56.09-3.07c0-3.01-.87-4.94-2.62-5.78-1.02-.6-6.99-2.08-17.88-4.42Zm38.56,112.08c9.75,1.2,17.94,1.81,24.57,1.81,10.3,0,18.79-1.66,25.47-4.97,9.57-4.88,16.84-11.98,21.81-21.32,4.97-9.33,7.45-20.8,7.45-34.41,0-7.1-.83-13.59-2.48-19.46-1.66-5.87-3.87-10.55-6.64-14.04-4.03-5.18-9.3-9.14-15.81-11.88-6.5-2.74-15.9-4.11-28.18-4.11-7.41,0-16.14.45-26.19,1.36-.36,15.84-.54,33.78-.54,53.83,0,21.19.18,38.93.54,53.2Z"/>
    <path class="cls-2" d="m1018.73,2589.38l3.43,5.33-18,13.28c-2.47,1.69-5.03,2.92-7.69,3.7-3.86,1.14-7.81,1.72-11.85,1.72-9.83,0-18.22-3.94-25.18-11.83-6.96-7.89-10.44-18.54-10.44-31.97,0-14.45,4.17-26.04,12.52-34.77,8.35-8.73,18.55-13.1,30.61-13.1,9.34,0,16.56,2.57,21.66,7.72,5.09,5.15,7.7,13.02,7.82,23.62-2.51,1.44-4.82,3.22-6.91,5.33-4.28-.06-6.96-.09-8.05-.09-15.97,0-29.86.24-41.67.72-.06,13.49,2.23,23.69,6.86,30.62,4.64,6.99,10.84,10.48,18.6,10.48,3.91,0,8.01-.77,12.28-2.3,4.27-1.54,9.6-4.35,15.99-8.45Zm-13.1-39.56c-.36-5.96-1.69-10.48-3.98-13.55-3.38-4.52-7.94-6.77-13.67-6.77-4.95,0-9.35,1.7-13.22,5.1-3.86,3.4-6.73,9.02-8.6,16.84,2.23.06,3.92.09,5.07.09,9.9,0,21.36-.57,34.4-1.72Z"/>
    <path class="cls-2" d="m1142.13,2547.2l-6.32-.54c-.42-5.3-2.3-9.48-5.64-12.55-3.34-3.07-7.51-4.61-12.51-4.61-4.34,0-7.78,1.16-10.34,3.48-2.56,2.32-3.84,4.98-3.84,7.99,0,2.65.99,5.12,2.98,7.41,2.77,3.13,8.73,6.95,17.89,11.46,9.15,4.51,15.33,8.75,18.51,12.73,3.13,4.04,4.69,8.61,4.69,13.73,0,7.35-2.95,13.7-8.85,19.06-5.9,5.36-13.97,8.04-24.2,8.04-7.41,0-15.59-1.66-24.57-4.97.96-8.49,1.45-16.26,1.45-23.3h6.23c1.75,7.11,4.41,12.19,7.99,15.26,3.58,3.07,7.99,4.61,13.23,4.61,4.7,0,8.34-1.19,10.93-3.57,2.59-2.38,3.88-5.4,3.88-9.08s-1.26-6.83-3.79-9.84c-2.59-3.01-8.34-6.74-17.25-11.2-8.91-4.46-14.84-8.49-17.79-12.1-3.01-3.61-4.52-7.71-4.52-12.28,0-6.5,2.94-12.33,8.81-17.48,5.87-5.15,13.68-7.72,23.44-7.72,6.8,0,14.15,1.6,22.04,4.79-.84,4.88-1.66,11.77-2.44,20.68Z"/>
    <path class="cls-2" d="m1214.24,2538.35v-5.06c10.12-2.59,19.63-6.44,28.54-11.56l2.35,1.9c-1.21,12.77-1.81,30.86-1.81,54.28,0,10.96.27,17.7.81,20.23.36,1.69.99,2.91,1.9,3.66.9.75,4.03,1.91,9.39,3.48.66.18,1.66.48,2.98.9v5.06c-7.89-.66-14.36-.99-19.42-.99-3.07,0-11.32.33-24.75.99v-5.06c8.13-1.99,12.7-3.81,13.73-5.46,1.02-1.66,1.54-10.31,1.54-25.97l-.09-19.24v-3.7c0-6.74-.45-10.81-1.35-12.19-.9-1.38-2.35-2.08-4.34-2.08-1.26,0-4.43.27-9.48.81Zm22.49-60.06c2.65,0,4.89.92,6.73,2.75,1.84,1.84,2.75,4.08,2.75,6.73s-.92,4.82-2.75,6.68c-1.84,1.87-4.08,2.8-6.73,2.8s-4.8-.93-6.64-2.8c-1.84-1.86-2.75-4.09-2.75-6.68s.92-4.89,2.75-6.73c1.84-1.84,4.05-2.75,6.64-2.75Z"/>
    <path class="cls-2" d="m1406.11,2525.16l.81,1.29c-1.39,2.76-2.74,5.64-4.06,8.65-4.46-.54-9.09-.84-13.91-.9,3.85,6.13,5.78,12.14,5.78,18.03,0,8.65-3.16,15.9-9.47,21.73-6.31,5.83-15.15,8.74-26.51,8.74-3.01,0-6.22-.33-9.65-.99-4.5,4.21-6.76,7.32-6.76,9.3,0,1.63.75,2.83,2.26,3.61,2.59,1.39,9.24,2.08,19.96,2.08l15.9-.27c9.39,0,15.86,1.57,19.42,4.7,3.55,3.13,5.33,7.8,5.33,14,0,8.67-3.68,15.84-11.03,21.5-10.73,8.31-24.5,12.46-41.32,12.46-11.75,0-20.36-2.08-25.81-6.23-5.46-4.16-8.18-8.73-8.18-13.73,0-2.47.45-4.55,1.36-6.23.42-.72,1.9-1.93,4.43-3.61l14.29-10.12c-4.22-.84-7.38-2.41-9.46-4.7-2.08-2.29-3.12-4.85-3.12-7.68,0-1.93.61-3.34,1.82-4.25,3.15-2.41,8.05-6.65,14.71-12.73-5.15-2.65-9.01-6.07-11.58-10.25-2.57-4.18-3.86-9.14-3.86-14.86,0-9.15,3.24-16.78,9.71-22.89,6.47-6.11,15.31-9.17,26.51-9.17,2.65,0,5.4.26,8.26.77,2.86.51,5.85,1.31,8.99,2.39,3.25-.07,5.78-.11,7.59-.11,8.25,0,14.12-.18,17.61-.53Zm-58.94,84.27c-4.83,4.09-8.14,7.48-9.92,10.16-1.78,2.68-2.67,5.13-2.67,7.36,0,3.19,1.66,5.99,4.98,8.4,4.52,3.31,10.94,4.97,19.27,4.97,9.41,0,17.17-1.76,23.29-5.28,6.12-3.52,9.18-8.32,9.18-14.4,0-3.61-1.22-6.4-3.66-8.35-2.44-1.96-7.07-2.94-13.88-2.94l-3.8.09h-22.79Zm-3.74-58.71c0,8.61,1.75,15.05,5.24,19.33,3.49,4.28,7.77,6.41,12.82,6.41,4.76,0,8.7-1.84,11.83-5.51,3.13-3.67,4.7-9.06,4.7-16.17,0-8.85-1.67-15.32-5.01-19.42-3.34-4.09-7.6-6.14-12.78-6.14-4.76,0-8.75,1.81-11.97,5.42-3.22,3.61-4.83,8.97-4.83,16.08Z"/>
    <path class="cls-2" d="m1465.3,2539.34v-5.24c10.84-2.53,20.65-6.35,29.44-11.47l2.44,1.54c-.84,5.12-1.35,10.39-1.54,15.81l11.47-11.38c1.93-1.68,4.18-3.01,6.77-3.97,3.55-1.32,7.25-1.99,11.11-1.99,8.61,0,15.11,2.86,19.51,8.58,2.95,3.79,4.43,10.33,4.43,19.6l-.27,21.86c0,14.63.18,23.27.54,25.92.3,1.81.87,3.07,1.72,3.79.84.72,3.7,1.66,8.58,2.8.9.24,2.26.57,4.06.99v5.06c-7.12-.66-13.46-.99-19.01-.99-4.83,0-13.09.33-24.8.99v-5.06c7.03-2.05,10.99-3.43,11.87-4.16.88-.72,1.41-1.9,1.59-3.52.66-5.96.99-15.08.99-27.37,0-13.13-.27-21.04-.81-23.75-.84-3.97-2.62-7.05-5.33-9.21s-5.96-3.25-9.75-3.25-7.89,1.16-11.74,3.48c-3.85,2.32-6.7,5.43-8.53,9.35-1.84,3.91-2.75,9.69-2.75,17.34,0,21.68.45,33.4,1.35,35.18.9,1.78,4.43,3.45,10.57,5.01.78.18,1.93.48,3.43.9v5.06c-8.09-.66-14.87-.99-20.36-.99s-13.21.33-23.71.99v-5.06c7.15-1.68,11.21-2.92,12.18-3.7.61-.48,1.03-1.75,1.27-3.79.66-5.72.99-13.52.99-23.39,0-20.41-.21-31.49-.63-33.24-.66-2.53-2.44-3.79-5.33-3.79-1.33,0-3.4.21-6.23.63-.78.12-1.96.27-3.52.45Z"/>
    <path class="cls-2" d="m1627.27,2569.06c0-14.57,4.13-26.1,12.39-34.59,8.26-8.49,19.11-12.73,32.55-12.73,12.72,0,22.8,3.82,30.24,11.47,7.44,7.65,11.17,18.33,11.17,32.06,0,14.81-4.17,26.54-12.52,35.18-8.35,8.64-19.15,12.96-32.41,12.96s-22.95-3.85-30.33-11.56c-7.38-7.71-11.07-18.64-11.07-32.79Zm17.34-7.86c0,9.88.63,17.16,1.9,21.86,1.99,7.59,5.14,13.29,9.46,17.11,4.31,3.82,9.33,5.74,15.06,5.74,7.42,0,13.51-2.81,18.27-8.45,4.76-5.63,7.15-14.68,7.15-27.14,0-13.97-2.7-24.31-8.1-31.02-5.4-6.71-11.75-10.07-19.05-10.07s-13.16,2.63-17.78,7.9c-4.61,5.27-6.92,13.29-6.92,24.07Z"/>
    <path class="cls-2" d="m1879.42,2488.4v-5.33c10.06.66,17.7.99,22.94.99,5.96,0,12.38-.33,19.24-.99,2.46,6.33,4.45,11.15,5.95,14.46,1.98,4.46,9.82,21.36,23.53,50.7,5.83,12.47,11.72,24.64,17.67,36.51l38.54-81.15c2.35-5,5.15-11.84,8.4-20.51,8.07.66,14.25.99,18.52.99,3.98,0,10.69-.33,20.15-.99v5.33c-1.81.48-3.16.81-4.06.99-8.37,1.69-13.04,2.92-14,3.7-1.57,1.21-2.35,4.25-2.35,9.12v1.17l-.36,28.63c0,36.01.15,57.86.45,65.57.06,1.63.53,2.83,1.4,3.61.87.78,6.01,2.08,15.4,3.88.78.12,1.96.39,3.52.81v5.33c-10.84-.66-20.38-.99-28.63-.99s-18.39.33-29.89.99v-5.33c2.35-.6,4.12-1.02,5.33-1.26,7.35-1.38,11.55-2.36,12.6-2.94,1.05-.57,1.76-1.37,2.12-2.39.54-1.75.81-6.62.81-14.63v-78.85c-5.48,10.84-17.84,36.94-37.09,78.3-5.29,11.38-9.2,20.08-11.73,26.1h-5.14c-13.48-29.92-29.99-64.73-49.54-104.41l1.17,84.18c0,6.68.54,10.51,1.63,11.47,1.08.96,5.63,2.14,13.64,3.52.9.18,2.29.48,4.15.9v5.33c-10.42-.66-18.85-.99-25.29-.99s-14.96.33-25.56.99v-5.33c1.75-.48,3.04-.78,3.88-.9,7.95-1.56,12.4-2.92,13.37-4.06,1.44-1.68,2.2-5.81,2.26-12.37l.45-20.32c.3-18.54.45-36.52.45-53.92l-.09-11.02c0-4.39-.27-7.15-.81-8.26-.54-1.11-1.42-1.91-2.62-2.39-2.29-.9-7.41-1.96-15.35-3.16-1.15-.18-2.83-.54-5.06-1.08Z"/>
    <path class="cls-2" d="m2131.89,2549.91l-5.87-.63c1.2-6.26,2.05-12.49,2.53-18.7,11.72-5.3,22.3-7.95,31.74-7.95,4.09,0,7.78.59,11.09,1.76s5.92,2.8,7.84,4.88c1.92,2.08,3.38,4.56,4.37,7.45.99,2.89,1.49,7.5,1.49,13.82l-.81,37.3c0,5.06.57,8.37,1.72,9.94,1.14,1.57,2.62,2.35,4.43,2.35,2.17,0,5.57-1.63,10.2-4.88l2.8,3.7c-8.49,7.59-13.13,11.62-13.91,12.1-1.69.96-3.79,1.44-6.32,1.44-3.91,0-6.94-.98-9.08-2.94-2.14-1.96-3.57-5.25-4.29-9.89-7.23,5.6-12.58,9.14-16.08,10.61-3.49,1.48-7.29,2.21-11.38,2.21-6.68,0-12.07-2.03-16.17-6.1-4.09-4.06-6.14-9.26-6.14-15.58,0-3.85.72-7.33,2.17-10.43,1.44-3.1,3.52-5.83,6.23-8.17,2.11-1.75,5.66-3.85,10.66-6.32,11.74-5.72,21.98-10.33,30.71-13.82-.3-8.49-1.71-14.12-4.23-16.89-2.52-2.77-6.4-4.15-11.62-4.15-4.93,0-9.15,1.52-12.66,4.56-3.51,3.04-6.65,7.81-9.42,14.31Zm37.93,10.02c-15.72,7.05-25.21,12.18-28.49,15.4-3.28,3.22-4.92,7.09-4.92,11.61s1.23,8.13,3.7,10.84c2.47,2.71,5.36,4.06,8.67,4.06s7.15-1.13,11.15-3.39c4-2.26,6.65-4.8,7.95-7.63,1.29-2.83,1.94-7.98,1.94-15.44v-15.44Z"/>
    <path class="cls-2" d="m2266.49,2529.86v-5.06c7.35.66,13.76.99,19.24.99s12.28-.33,20.77-.99v5.06c-.96.18-1.72.3-2.26.36-2.23.36-3.88.93-4.97,1.72-.54.42-.81.99-.81,1.72,0,2.59,3.93,9.76,11.8,21.5,5.54-6.08,9.89-11.62,13.04-16.62,1.56-2.53,2.35-4.28,2.35-5.24,0-.84-.27-1.45-.81-1.81-.84-.72-2.38-1.21-4.61-1.45l-1.26-.18v-5.06c5.12.66,10.02.99,14.72.99,4.21,0,9.78-.33,16.7-.99v5.06c-3.79.36-6.64,1.08-8.54,2.17-1.9,1.08-4.02,3.07-6.37,5.96l-20.19,24.7c15.5,23.15,24.4,35.9,26.69,38.25,1.68,1.75,5.57,3.49,11.65,5.24v5.06c-8.11-.66-14.81-.99-20.1-.99-5.71,0-12.18.33-19.4.99v-5.06c.72-.18,1.29-.3,1.72-.36,3.13-.66,5.09-1.36,5.87-2.09.66-.54.99-1.24.99-2.09,0-1.09-.42-2.42-1.26-3.99-2.19-4.14-7.35-11.99-15.48-23.55-12.9,15.78-19.35,25-19.35,27.65,0,.9.3,1.6.9,2.08,1.26.9,3.55,1.6,6.86,2.08.42.06.99.15,1.72.27v5.06c-7.04-.66-12.68-.99-16.89-.99s-10.21.33-17.43.99v-5.06c5-.84,8.49-2.12,10.48-3.84,1.99-1.72,11.61-13.57,28.88-35.58-1.82-3.08-6.72-10.53-14.7-22.36-3.43-5-6.19-8.28-8.26-9.84-2.08-1.57-5.98-3.13-11.7-4.7Z"/>
  </g>
</svg>