<?xml version="1.0" encoding="utf-8"?>
<!-- Generator: Adobe Illustrator 27.3.1, SVG Export Plug-In . SVG Version: 6.00 Build 0)  -->
<svg version="1.1" id="Layer_1" xmlns="http://www.w3.org/2000/svg" xmlns:xlink="http://www.w3.org/1999/xlink" x="0px" y="0px"
	 viewBox="0 0 205 40" style="enable-background:new 0 0 205 40;" xml:space="preserve">
<style type="text/css">
	.st0{fill:#FEC44C;}
</style>
<g>
	<path class="st0" d="M17.6,2.1H8.7c-2.8,0-5.1,2.3-5.1,5.1v25.7c0,2.8,2.3,5.1,5.1,5.1h8.9c11.4,0,18-7.2,18-17.9v-0.1
		C35.6,9.3,29,2.1,17.6,2.1L17.6,2.1z M34.4,20.5H34v4.4c0.2,0,0.4,0.2,0.4,0.4c0,0.1,0,0.2-0.1,0.3c-0.1,0.1-0.2,0.1-0.3,0.1
		c-0.1,0-0.2,0-0.3-0.1c-0.1-0.1-0.1-0.2-0.1-0.3s0-0.2,0.1-0.3c0.1-0.1,0.2-0.1,0.3-0.1V21c-0.4,2.3-2.4,4.1-4.8,4.3v0.4h-0.9v-0.9
		h0.9v0.4c2.5-0.2,4.6-2.2,4.8-4.8h-0.4v-0.3c-0.4,0.3-1.8,1.1-2.5,1.4l0,0c0,0,0,0,0,0c-0.4-0.5-1-0.6-1.4-0.6
		c0,0.1-0.1,0.1-0.1,0.1h-0.3c-0.1,0-0.1-0.1-0.1-0.1v-0.1h-0.1c-0.1,0-0.1-0.1-0.1-0.1v0H28c-0.2,6.1-3.9,10.2-10.4,10.2h-4.3
		c-1.2,0-2.1-0.9-2.1-2.1V11.4c0-1.2,0.9-2.1,2.1-2.1h4.3c6.4,0,10.2,4.1,10.4,10.2h0.8v0c0-0.1,0.1-0.1,0.1-0.1h0.1v-0.1
		c0-0.1,0.1-0.1,0.1-0.1h0.3c0.1,0,0.1,0.1,0.1,0.1c0.4,0,1-0.2,1.4-0.6c0.7,0.3,2.1,1.1,2.5,1.4v-0.3h0.4c-0.2-2.5-2.2-4.6-4.8-4.8
		v0.4h-0.9v-0.9h0.9v0.4c2.4,0.2,4.4,2,4.8,4.3v-3.9c-0.2,0-0.4-0.2-0.4-0.4c0-0.1,0-0.2,0.1-0.3c0.1-0.1,0.2-0.1,0.4-0.1
		c0.2,0,0.4,0.2,0.4,0.4c0,0.3-0.1,0.5-0.4,0.5v4.4h0.4L34.4,20.5L34.4,20.5z"/>
	<path class="st0" d="M32.7,20.2v0.1h-2.1c0,0.1-0.1,0.2-0.2,0.2c-0.1,0-0.1,0-0.2-0.1c0,0,0,0-0.1-0.1c0,0,0-0.1,0-0.1
		c0-0.1,0.1-0.2,0.2-0.2c0.1,0,0.2,0.1,0.2,0.2L32.7,20.2L32.7,20.2z"/>
</g>
</svg>
